<?xml version="1.0" encoding="UTF-8"?>
<svg xmlns="http://www.w3.org/2000/svg" xmlns:xlink="http://www.w3.org/1999/xlink" width="64px" height="64px" viewBox="0 0 64 64" version="1.1">
<defs>
<linearGradient id="linear0" gradientUnits="userSpaceOnUse" x1="-27.3218" y1="80.109398" x2="51.323399" y2="-56.108002" gradientTransform="matrix(0.5,0,0,0.5,26,26)">
<stop offset="0" style="stop-color:rgb(16.078431%,19.607843%,23.529412%);stop-opacity:1;"/>
<stop offset="1" style="stop-color:rgb(28.235294%,33.333333%,38.823529%);stop-opacity:1;"/>
</linearGradient>
</defs>
<g id="surface1">
<path style=" stroke:none;fill-rule:nonzero;fill:url(#linear0);" d="M 52 64 L 12 64 C 5.371094 64 0 58.628906 0 52 L 0 12 C 0 5.371094 5.371094 0 12 0 L 52 0 C 58.628906 0 64 5.371094 64 12 L 64 52 C 64 58.628906 58.628906 64 52 64 Z M 52 64 "/>
<path style=" stroke:none;fill-rule:nonzero;fill:rgb(100%,100%,100%);fill-opacity:1;" d="M 48.167969 29.058594 C 48.097656 28.886719 47.902344 28.808594 47.730469 28.878906 L 42.910156 30.917969 C 42.742188 30.988281 42.664062 31.183594 42.730469 31.355469 C 42.964844 31.957031 43.144531 32.574219 43.273438 33.203125 C 43.429688 33.964844 43.507812 34.742188 43.507812 35.527344 C 43.507812 36.308594 43.429688 37.089844 43.273438 37.847656 C 43.121094 38.585938 42.898438 39.308594 42.601562 40.007812 C 42.316406 40.683594 41.960938 41.339844 41.542969 41.957031 C 41.132812 42.566406 40.660156 43.140625 40.136719 43.664062 C 39.617188 44.183594 39.042969 44.65625 38.433594 45.070312 C 37.816406 45.484375 37.160156 45.839844 36.476562 46.132812 C 35.785156 46.421875 35.0625 46.648438 34.324219 46.800781 C 32.804688 47.109375 31.199219 47.109375 29.675781 46.800781 C 28.9375 46.648438 28.214844 46.421875 27.519531 46.128906 C 26.839844 45.839844 26.183594 45.484375 25.566406 45.070312 C 24.957031 44.65625 24.382812 44.183594 23.863281 43.664062 C 23.339844 43.140625 22.867188 42.566406 22.457031 41.960938 C 22.039062 41.339844 21.683594 40.683594 21.398438 40.003906 C 21.101562 39.308594 20.878906 38.585938 20.726562 37.847656 C 20.570312 37.089844 20.492188 36.308594 20.492188 35.527344 C 20.492188 34.742188 20.570312 33.964844 20.726562 33.203125 C 20.878906 32.464844 21.101562 31.742188 21.398438 31.046875 C 21.683594 30.367188 22.039062 29.710938 22.457031 29.09375 C 22.867188 28.484375 23.339844 27.910156 23.863281 27.386719 C 24.382812 26.867188 24.957031 26.394531 25.566406 25.980469 C 26.183594 25.566406 26.839844 25.210938 27.523438 24.921875 C 28.214844 24.628906 28.9375 24.402344 29.679688 24.25 C 30.4375 24.097656 31.21875 24.019531 32 24.019531 L 32 28.996094 C 32 29.179688 32.128906 29.257812 32.289062 29.164062 L 46.019531 21.234375 C 46.179688 21.144531 46.179688 20.992188 46.019531 20.902344 L 32.289062 12.972656 C 32.128906 12.882812 32 12.957031 32 13.140625 L 32 18.117188 C 30.820312 18.117188 29.644531 18.238281 28.496094 18.472656 C 27.371094 18.699219 26.273438 19.042969 25.222656 19.488281 C 24.191406 19.925781 23.195312 20.464844 22.265625 21.09375 C 21.339844 21.71875 20.476562 22.429688 19.691406 23.21875 C 18.902344 24.007812 18.1875 24.875 17.566406 25.792969 C 16.933594 26.726562 16.394531 27.722656 15.960938 28.75 C 15.515625 29.800781 15.175781 30.90625 14.945312 32.023438 C 14.710938 33.167969 14.59375 34.347656 14.59375 35.527344 C 14.59375 36.707031 14.710938 37.886719 14.945312 39.03125 C 15.175781 40.148438 15.515625 41.25 15.960938 42.300781 C 16.394531 43.332031 16.933594 44.328125 17.566406 45.261719 C 18.1875 46.179688 18.902344 47.046875 19.691406 47.835938 C 20.476562 48.621094 21.339844 49.335938 22.265625 49.960938 C 23.195312 50.589844 24.191406 51.128906 25.21875 51.566406 C 26.273438 52.011719 27.371094 52.351562 28.496094 52.582031 C 29.644531 52.816406 30.820312 52.933594 32 52.933594 C 33.179688 52.933594 34.355469 52.816406 35.503906 52.582031 C 36.628906 52.351562 37.726562 52.007812 38.777344 51.566406 C 39.808594 51.128906 40.804688 50.589844 41.734375 49.960938 C 42.660156 49.335938 43.523438 48.621094 44.308594 47.835938 C 45.097656 47.046875 45.8125 46.179688 46.433594 45.261719 C 47.066406 44.328125 47.605469 43.332031 48.039062 42.304688 C 48.484375 41.25 48.824219 40.148438 49.054688 39.03125 C 49.289062 37.886719 49.40625 36.707031 49.40625 35.527344 C 49.40625 34.347656 49.289062 33.167969 49.054688 32.023438 C 48.847656 31.011719 48.550781 30.015625 48.167969 29.058594 Z M 48.167969 29.058594 "/>
</g>
</svg>
