<?xml version="1.0" encoding="utf-8"?>
<!-- Generator: Adobe Illustrator 16.0.0, SVG Export Plug-In . SVG Version: 6.00 Build 0)  -->
<!DOCTYPE svg PUBLIC "-//W3C//DTD SVG 1.1//EN" "http://www.w3.org/Graphics/SVG/1.1/DTD/svg11.dtd">
<svg version="1.1" id="Layer_1" xmlns="http://www.w3.org/2000/svg" xmlns:xlink="http://www.w3.org/1999/xlink" x="0px" y="0px"
	 width="270px" height="270px" viewBox="0 0 270 270" enable-background="new 0 0 270 270" xml:space="preserve">
<path fill="#ED1C24" d="M255,124.942l-79.711-71.26l-16.498,105.639l27.114-9.689c-0.013,0.064-0.025,0.128-0.039,0.192
	c-0.093,0.352-0.189,0.704-0.285,1.063c-0.189,0.719-0.383,1.453-0.58,2.203c-0.217,0.744-0.475,1.492-0.714,2.264
	c-0.122,0.387-0.244,0.775-0.367,1.169l-0.046,0.147c-0.044,0.114,0.314-0.739,0.146-0.335l-0.035,0.091l-0.141,0.364
	c-0.093,0.242-0.187,0.486-0.281,0.731c-0.377,0.979-0.761,1.973-1.15,2.986c-0.31,0.695-0.618,1.406-0.924,2.138
	c-0.076,0.185-0.152,0.367-0.229,0.552c-0.041,0.093-0.07,0.181-0.12,0.281l-0.153,0.308c-0.202,0.411-0.407,0.825-0.612,1.243
	c-0.417,0.833-0.802,1.704-1.292,2.53c-0.233,0.421-0.468,0.844-0.706,1.271c-0.118,0.214-0.236,0.43-0.354,0.645l-0.178,0.325
	l-0.089,0.163c0.484-0.709,0.098-0.141,0.19-0.274l-0.062,0.098c-0.659,1.037-1.327,2.086-2.003,3.151l-0.254,0.398l-0.124,0.195
	l-0.099,0.137c-0.13,0.187-0.262,0.372-0.395,0.559c-0.26,0.377-0.522,0.756-0.787,1.137c-0.13,0.193-0.261,0.385-0.393,0.578
	l-0.196,0.292c-0.069,0.1-0.16,0.209-0.239,0.312c-0.326,0.421-0.656,0.844-0.985,1.271c-0.329,0.429-0.661,0.859-0.994,1.293
	c-0.333,0.435-0.711,0.835-1.066,1.261c-0.36,0.422-0.723,0.845-1.087,1.271l-0.274,0.321l-0.137,0.161l-0.067,0.081
	c0.114-0.107-0.352,0.353,0.238-0.218c-0.239,0.247-0.478,0.494-0.718,0.743c-0.481,0.498-0.965,0.997-1.45,1.5
	c-0.243,0.252-0.486,0.504-0.73,0.756l-0.366,0.38c-0.067,0.072-0.101,0.096-0.152,0.145l-0.142,0.133
	c-0.752,0.702-1.502,1.424-2.263,2.167c-0.897,0.772-1.803,1.552-2.717,2.338c-0.939,0.756-1.914,1.484-2.879,2.248l-0.182,0.145
	l-0.091,0.071c-0.332,0.217,0.351-0.218,0.236-0.144l-0.464,0.318c-0.309,0.21-0.617,0.423-0.927,0.635
	c-0.621,0.426-1.243,0.853-1.868,1.281l-0.47,0.321l-0.36,0.223l-0.718,0.444c-0.479,0.303-0.958,0.607-1.441,0.914l-0.363,0.231
	l-0.419,0.233c-0.28,0.154-0.561,0.312-0.841,0.468c-0.562,0.316-1.126,0.632-1.692,0.95c-0.279,0.166-0.573,0.306-0.865,0.45
	c-0.291,0.143-0.585,0.288-0.878,0.434c-0.586,0.292-1.174,0.586-1.765,0.88l-0.111,0.055c-0.351,0.143,0.355-0.129,0.23-0.079
	l-0.273,0.116l-0.548,0.234c-0.365,0.155-0.731,0.312-1.098,0.469c-0.732,0.311-1.465,0.623-2.201,0.938
	c-0.566,0.212-1.134,0.425-1.702,0.64l-0.856,0.329c-0.289,0.11-0.554,0.229-0.895,0.329c-0.648,0.209-1.3,0.42-1.952,0.631
	c-0.654,0.21-1.304,0.445-1.976,0.608c-0.668,0.18-1.338,0.363-2.01,0.546l-0.504,0.138l-0.252,0.07l-0.127,0.035
	c-0.114,0.025,0.562-0.095,0.202-0.027c-0.405,0.084-0.812,0.172-1.219,0.259c-0.814,0.172-1.63,0.346-2.448,0.521l-0.612,0.13
	l-0.475,0.077l-0.953,0.16c-0.638,0.113-1.276,0.227-1.917,0.339c-0.71,0.087-1.422,0.173-2.136,0.259l-1.074,0.134l-0.54,0.067
	l-0.541,0.038c-0.724,0.054-1.449,0.106-2.175,0.159l-0.546,0.043l-0.273,0.02l-0.138,0.011c0.1,0.005-0.415,0.005,0.188,0.013
	l-1.29,0.024c-0.86,0.016-1.723,0.032-2.588,0.048l-0.324,0.006c-0.108,0.002-0.223,0.006-0.298,0.002l-0.505-0.015l-1.014-0.025
	l-1.02-0.018l-0.511-0.007c-0.171-0.004-0.336,0-0.528-0.02c-0.744-0.054-1.489-0.106-2.235-0.159l-1.124-0.076
	c-0.376-0.02-0.746-0.083-1.121-0.123c-0.749-0.088-1.497-0.177-2.249-0.265l-0.564-0.065c-0.325-0.063,0.286,0.07,0.162,0.044
	l-0.163-0.029l-0.326-0.056l-1.306-0.228c-0.866-0.152-1.734-0.305-2.604-0.458c-0.685-0.15-1.371-0.302-2.058-0.454
	c-1.339-0.241-2.88-0.711-4.363-1.096c-0.754-0.182-1.481-0.445-2.221-0.678c-0.74-0.237-1.481-0.477-2.223-0.714
	c0.505,0.214,0.05,0.024,0.122,0.056l-0.158-0.059l-0.314-0.121l-0.63-0.243l-1.262-0.486c-0.819-0.318-1.768-0.662-2.349-0.94
	c-1.333-0.602-2.64-1.093-4.083-1.855c-0.71-0.351-1.42-0.701-2.131-1.053c-0.692-0.387-1.386-0.775-2.08-1.163l-1.044-0.583
	l-0.262-0.145l-0.131-0.073c-0.094-0.056,0.361,0.252,0.1,0.077l-0.577-0.367c-0.771-0.49-1.542-0.979-2.313-1.47l-0.578-0.368
	l-0.29-0.183c-0.096-0.063-0.157-0.11-0.238-0.165l-0.914-0.647l-1.846-1.284c-0.154-0.099-0.313-0.228-0.472-0.351l-0.477-0.373
	l-0.956-0.746l-0.96-0.744c-0.32-0.248-0.645-0.492-0.945-0.765l-1.844-1.594l-0.926-0.797c-0.209-0.208,0.154,0.172,0.07,0.087
	l-0.124-0.119l-0.249-0.24l-0.496-0.479l-1.986-1.92l-0.496-0.479l-0.397-0.422l-0.786-0.834l-1.587-1.673l-1.593-1.87
	c-1.1-1.224-2.056-2.556-3.07-3.851l-0.378-0.488l-0.094-0.123c-0.061-0.084,0.19,0.309,0.038,0.074l-0.195-0.284l-0.782-1.142
	l-1.563-2.28l-1.222-1.975c-0.409-0.662-0.833-1.292-1.225-2.043c-0.793-1.446-1.634-2.874-2.328-4.376l-0.548-1.111l-0.275-0.557
	l-0.138-0.279c0.014,0.046-0.128-0.3,0.013,0.068l-0.067-0.158l-1.082-2.536l-0.54-1.267l-0.068-0.16l-0.052-0.137l-0.102-0.275
	l-0.204-0.551l-0.83-2.201c-0.146-0.354-0.269-0.754-0.394-1.15l-0.378-1.184l-0.381-1.184c-0.126-0.396-0.263-0.789-0.361-1.19
	c-0.214-0.802-0.428-1.604-0.643-2.402l-0.162-0.602l-0.082-0.3l-0.041-0.15c-0.022-0.091,0.043,0.269-0.001,0.037l-0.284-1.338
	c-0.19-0.892-0.38-1.782-0.568-2.67c-0.055-0.236-0.078-0.416-0.111-0.612l-0.096-0.583l-0.194-1.165l-0.198-1.166
	c-0.032-0.197-0.071-0.385-0.098-0.587l-0.072-0.617c-0.097-0.822-0.194-1.644-0.291-2.465c-0.117-0.821-0.156-1.646-0.216-2.47
	l-0.086-1.236l-0.044-0.619l-0.022-0.309l-0.011-0.155c-0.004,0.03-0.005-0.286-0.013,0.029c-0.017-0.899-0.034-1.798-0.051-2.695
	l-0.024-1.345l-0.006-0.336c-0.002-0.114,0.004-0.2,0.006-0.303l0.017-0.589c0.051-1.576,0.04-3.123,0.201-4.787
	c0.061-0.818,0.121-1.637,0.182-2.453c0.099-0.813,0.199-1.625,0.299-2.436l0.147-1.217l0.037-0.304
	c0.012-0.084-0.05,0.206-0.01,0.006l0.028-0.164l0.114-0.651c0.152-0.869,0.303-1.734,0.455-2.599c0.142-0.91,0.323-1.62,0.491-2.39
	c0.167-0.763,0.334-1.524,0.501-2.285c0.199-0.774,0.423-1.558,0.633-2.335l0.318-1.168l0.158-0.584
	c0.058-0.193,0.125-0.383,0.186-0.574c0.25-0.765,0.499-1.53,0.748-2.292l0.372-1.145c-0.103,0.232,0.005-0.022-0.003-0.01
	l0.058-0.15l0.115-0.3l0.231-0.6c0.308-0.8,0.615-1.599,0.921-2.395l0.23-0.597c0.077-0.189,0.155-0.354,0.232-0.533l0.464-1.053
	c0.308-0.704,0.615-1.406,0.921-2.108c0.337-0.705,0.704-1.413,1.052-2.118c0.359-0.702,0.69-1.419,1.069-2.107
	c0.387-0.684,0.772-1.367,1.156-2.048c3.181-5.546,6.724-10.405,10.768-14.933l0.667-0.772l0.821-0.851
	c0.547-0.565,1.092-1.129,1.635-1.691c0.271-0.278,0.544-0.568,0.812-0.835l0.79-0.739c0.526-0.494,1.05-0.987,1.572-1.477
	c0.262-0.246,0.522-0.492,0.782-0.738c0.28-0.236,0.559-0.472,0.836-0.708c0.557-0.472,1.112-0.943,1.664-1.411
	c0.276-0.236,0.552-0.47,0.829-0.704c0.279-0.227,0.571-0.439,0.855-0.66c0.571-0.437,1.141-0.873,1.708-1.307
	c0.284-0.217,0.567-0.435,0.85-0.651l0.106-0.082c0-0.003,0.148-0.105,0.027-0.029l0.229-0.157l0.458-0.313
	c0.609-0.418,1.216-0.834,1.821-1.249c1.224-0.875,2.369-1.539,3.526-2.26c0.289-0.179,0.577-0.357,0.864-0.534
	c0.288-0.179,0.571-0.36,0.878-0.52c0.602-0.331,1.2-0.66,1.795-0.988c0.598-0.326,1.188-0.659,1.783-0.976
	c0.606-0.295,1.209-0.589,1.81-0.882c0.601-0.293,1.199-0.585,1.793-0.875l0.223-0.109c-0.1,0.036,0.04-0.019,0.048-0.024
	l0.117-0.05l0.471-0.201c0.313-0.133,0.625-0.266,0.937-0.399c1.24-0.52,2.493-1.095,3.66-1.497c0.592-0.22,1.181-0.439,1.767-0.657
	c0.586-0.218,1.164-0.445,1.77-0.623c1.199-0.379,2.384-0.753,3.553-1.123c4.698-1.351,9.388-2.253,13.687-2.824
	c1.096-0.126,2.173-0.25,3.233-0.373c1.066-0.073,2.113-0.144,3.142-0.214c0.257-0.018,0.514-0.035,0.77-0.052l0.382-0.026
	l0.096-0.006c0.064-0.002,0.019-0.005,0.06-0.005l0.193-0.003c0.515-0.01,1.026-0.02,1.532-0.029c1.008-0.013,2.01-0.051,2.97-0.041
	c0.951,0.027,1.883,0.054,2.796,0.081c0.457,0.015,0.91,0.021,1.358,0.042c0.449,0.035,0.893,0.068,1.332,0.102
	c0.879,0.068,1.738,0.133,2.577,0.197c0.42,0.023,0.83,0.089,1.237,0.137c0.406,0.051,0.809,0.101,1.204,0.15
	c0.794,0.1,1.567,0.196,2.317,0.29c0.747,0.129,1.471,0.256,2.172,0.378c0.708,0.124,1.395,0.243,2.058,0.359
	c0.655,0.132,1.278,0.283,1.887,0.416c0.606,0.136,1.19,0.268,1.751,0.394c0.281,0.063,0.557,0.125,0.827,0.185
	c0.266,0.073,0.526,0.146,0.781,0.215c1.022,0.282,1.949,0.539,2.78,0.768c0.837,0.213,1.552,0.477,2.18,0.677
	c0.625,0.206,1.151,0.38,1.575,0.519c0.848,0.28,1.287,0.424,1.287,0.424s-0.424-0.181-1.246-0.531
	c-0.411-0.176-0.922-0.393-1.529-0.652c-0.609-0.253-1.305-0.579-2.123-0.863c-0.813-0.301-1.721-0.637-2.721-1.006
	c-0.25-0.092-0.506-0.187-0.769-0.284c-0.267-0.083-0.538-0.17-0.816-0.257c-0.557-0.177-1.137-0.359-1.739-0.549
	c-0.603-0.186-1.229-0.395-1.879-0.584c-0.651-0.171-1.324-0.349-2.019-0.532c-0.7-0.184-1.423-0.375-2.167-0.57
	c-0.753-0.16-1.527-0.325-2.322-0.494c-0.398-0.085-0.803-0.17-1.212-0.257c-0.409-0.083-0.822-0.186-1.247-0.245
	c-0.848-0.139-1.716-0.28-2.606-0.424c-0.445-0.073-0.896-0.146-1.352-0.22c-0.458-0.062-0.927-0.108-1.398-0.164
	c-0.946-0.107-1.913-0.217-2.899-0.328c-0.981-0.093-1.963-0.138-2.975-0.211c-0.505-0.034-1.015-0.067-1.529-0.102l-0.193-0.013
	l-0.231-0.006l-0.396-0.007c-0.264-0.004-0.529-0.01-0.796-0.015c-1.068-0.018-2.156-0.035-3.263-0.053
	c-1.107,0.033-2.233,0.066-3.378,0.101c-4.645,0.224-9.431,0.731-14.535,1.735c-1.263,0.284-2.543,0.572-3.838,0.862
	c-0.648,0.134-1.302,0.325-1.959,0.507c-0.659,0.184-1.321,0.369-1.988,0.555c-1.369,0.355-2.593,0.8-3.889,1.218
	c-0.322,0.105-0.644,0.212-0.967,0.318l-0.485,0.161l-0.122,0.04c-0.071,0.025-0.013-0.001-0.19,0.068l-0.248,0.095
	c-0.659,0.254-1.322,0.511-1.989,0.768c-0.667,0.258-1.338,0.518-2.013,0.779c-0.665,0.284-1.326,0.585-1.995,0.88
	c-0.668,0.297-1.34,0.596-2.016,0.897c-0.338,0.142-0.674,0.316-1.012,0.487c-0.337,0.171-0.676,0.342-1.015,0.514
	c-1.35,0.688-2.773,1.381-4,2.111c-0.637,0.361-1.277,0.725-1.92,1.09l-0.483,0.273l-0.241,0.138l-0.324,0.205
	c-0.326,0.207-0.652,0.415-0.979,0.624c-0.655,0.418-1.313,0.838-1.974,1.26c-0.329,0.213-0.665,0.418-0.99,0.64
	c-0.322,0.228-0.643,0.456-0.965,0.685c-0.646,0.458-1.293,0.919-1.942,1.381c-0.325,0.233-0.651,0.465-0.978,0.698
	c-0.321,0.253-0.643,0.508-0.965,0.763c-0.645,0.511-1.292,1.025-1.942,1.541c-0.325,0.259-0.651,0.519-0.977,0.778
	c-0.307,0.258-0.591,0.513-0.888,0.77c-0.588,0.514-1.179,1.031-1.772,1.548c-0.296,0.259-0.594,0.518-0.891,0.778
	c-0.075,0.069,0.009-0.017-0.195,0.179l-0.111,0.108l-0.223,0.216l-0.447,0.433c-4.814,4.523-9.447,9.878-13.373,15.574
	c-0.497,0.729-0.995,1.46-1.494,2.193c-0.491,0.739-0.936,1.509-1.408,2.268c-0.463,0.765-0.937,1.519-1.395,2.302
	c-0.442,0.813-0.885,1.627-1.33,2.444l-0.665,1.232c-0.108,0.203-0.227,0.415-0.327,0.613l-0.28,0.575
	c-0.373,0.767-0.746,1.537-1.121,2.308l-0.281,0.578l-0.141,0.29l-0.071,0.144c-0.049,0.113,0.012-0.045-0.128,0.287l-0.538,1.267
	c-0.358,0.847-0.717,1.695-1.077,2.546c-0.088,0.213-0.182,0.425-0.267,0.64l-0.24,0.651l-0.48,1.305
	c-0.317,0.874-0.645,1.739-0.956,2.63c-0.287,0.92-0.574,1.843-0.862,2.768c-0.282,0.92-0.596,1.891-0.793,2.703
	c-0.224,0.849-0.448,1.699-0.673,2.551l-0.168,0.639l-0.042,0.16c0.015-0.094-0.069,0.306-0.073,0.33l-0.073,0.348l-0.294,1.393
	c-0.195,0.932-0.39,1.865-0.585,2.799c-0.152,0.943-0.306,1.887-0.458,2.832c-0.337,1.86-0.522,3.878-0.74,5.868
	c-0.125,1.044-0.164,1.891-0.227,2.793c-0.06,0.895-0.119,1.792-0.179,2.689c-0.016,1.035-0.033,2.071-0.049,3.107
	c-0.013,0.978-0.043,1.958,0.006,2.937c0.032,0.981,0.064,1.961,0.096,2.945l0.024,0.738c0.012,0.248,0.038,0.508,0.057,0.762
	l0.125,1.534l0.129,1.536l0.067,0.77c0.023,0.256,0.043,0.527,0.073,0.74c0.113,0.902,0.227,1.806,0.34,2.71l0.17,1.356
	c-0.024-0.121,0.056,0.353,0.061,0.372l0.032,0.183l0.065,0.368l0.13,0.735c0.176,0.98,0.351,1.964,0.527,2.945
	c0.08,0.495,0.199,0.979,0.309,1.467l0.334,1.463l0.336,1.467c0.111,0.487,0.219,0.974,0.371,1.484
	c0.286,1.009,0.572,2.021,0.859,3.03l0.217,0.76l0.11,0.38l0.054,0.188l0.055,0.162l0.431,1.31l0.862,2.618l0.054,0.164l0.149,0.384
	l0.137,0.354l0.274,0.707l0.55,1.415c0.7,1.905,1.562,3.741,2.39,5.601c0.39,0.918,0.899,1.878,1.381,2.827l1.469,2.852l1.365,2.404
	l0.683,1.204l0.17,0.301c-0.092-0.137,0.219,0.354,0.227,0.363l0.104,0.162l0.413,0.645c1.109,1.715,2.174,3.469,3.398,5.109
	l1.79,2.498c0.654,0.84,1.333,1.683,2.004,2.522l1.012,1.26l0.506,0.621l0.454,0.521l1.816,2.08l0.454,0.521l0.227,0.259
	l0.113,0.131c-0.008-0.01,0.442,0.457,0.316,0.33l1.07,1.102l2.149,2.201c0.352,0.372,0.731,0.718,1.107,1.067l1.127,1.046
	l1.13,1.047l0.566,0.522c0.188,0.175,0.373,0.349,0.587,0.521c0.833,0.694,1.664,1.387,2.495,2.078l1.253,1.034
	c0.102,0.082,0.216,0.181,0.308,0.25l0.272,0.207l0.545,0.416c0.727,0.555,1.453,1.107,2.179,1.661l0.545,0.413
	c-0.168-0.109,0.378,0.269,0.383,0.269l0.158,0.109l0.318,0.217l1.273,0.866c0.851,0.575,1.701,1.148,2.551,1.723
	c0.876,0.533,1.751,1.067,2.626,1.601c1.687,1.075,3.675,2.094,5.57,3.113c1.021,0.558,1.749,0.885,2.579,1.294l1.215,0.591
	l0.607,0.295l0.304,0.146l0.152,0.075c0.175,0.076-0.178-0.068,0.431,0.189c0.939,0.397,1.878,0.794,2.816,1.188
	c0.94,0.391,1.872,0.807,2.833,1.138c1.926,0.691,3.751,1.416,5.867,2.025c1.029,0.312,2.057,0.623,3.083,0.936
	c0.861,0.226,1.721,0.453,2.58,0.682l1.281,0.338l0.32,0.083l0.161,0.043c-0.014-0.003,0.703,0.146,0.486,0.104l0.738,0.154
	c0.985,0.204,1.968,0.408,2.95,0.612c0.493,0.095,0.981,0.214,1.476,0.288l1.482,0.235c0.988,0.156,1.976,0.311,2.961,0.465
	c0.239,0.041,0.51,0.067,0.772,0.098l0.789,0.086c0.527,0.056,1.053,0.111,1.579,0.167c0.526,0.054,1.052,0.108,1.578,0.161
	l0.789,0.078c0.142,0.016,0.241,0.021,0.35,0.028l0.324,0.021c0.863,0.058,1.723,0.115,2.582,0.173l1.288,0.084
	c0.601,0.011,1.202,0.021,1.802,0.029c0.985,0.012,1.968,0.023,2.949,0.036l0.736,0.009l0.734-0.026
	c0.489-0.014,0.978-0.031,1.467-0.048c0.979-0.035,1.955-0.07,2.928-0.106c1.036-0.088,2.07-0.176,3.101-0.263
	c0.516-0.046,1.031-0.093,1.545-0.14l0.772-0.071l0.625-0.078c0.83-0.104,1.658-0.209,2.483-0.312
	c0.413-0.052,0.825-0.104,1.236-0.156c0.583-0.102,1.166-0.204,1.746-0.307c0.944-0.17,1.884-0.342,2.823-0.512
	c0.942-0.153,1.865-0.385,2.791-0.595c0.926-0.215,1.849-0.428,2.769-0.643c0.448-0.095,0.949-0.248,1.431-0.381
	c0.485-0.14,0.97-0.276,1.454-0.415c0.967-0.282,1.932-0.563,2.894-0.844c0.766-0.25,1.528-0.504,2.289-0.753
	c0.378-0.124,0.757-0.25,1.135-0.374l0.566-0.188l0.282-0.092l0.666-0.258c0.862-0.336,1.72-0.671,2.576-1.004
	c0.428-0.17,0.855-0.338,1.281-0.506c0.427-0.168,0.854-0.333,1.269-0.525c0.833-0.374,1.664-0.748,2.492-1.119
	c0.414-0.187,0.828-0.374,1.24-0.561l0.617-0.281l0.647-0.328c0.862-0.442,1.719-0.885,2.575-1.325
	c0.427-0.223,0.852-0.445,1.277-0.668l0.634-0.334l0.495-0.281c0.66-0.374,1.316-0.746,1.969-1.118
	c0.328-0.184,0.654-0.37,0.979-0.555l0.488-0.277l0.885-0.563c1.47-0.949,2.946-1.876,4.374-2.84
	c1.401-1.008,2.789-2.006,4.165-2.994c1.424-1.128,2.833-2.265,4.22-3.397l0.504-0.415l0.397-0.347
	c0.264-0.232,0.527-0.462,0.791-0.691c0.527-0.46,1.05-0.917,1.571-1.372c0.261-0.227,0.521-0.454,0.779-0.68
	c0.393-0.383,0.786-0.765,1.177-1.146c0.578-0.564,1.152-1.127,1.724-1.685c0.566-0.566,1.15-1.107,1.69-1.687
	c0.539-0.583,1.074-1.16,1.606-1.734c0.531-0.578,1.059-1.153,1.584-1.723c0.132-0.146,0.26-0.279,0.394-0.437l0.401-0.479
	c0.267-0.321,0.532-0.641,0.797-0.958c0.526-0.64,1.049-1.276,1.57-1.907c0.259-0.318,0.518-0.636,0.774-0.951l0.193-0.237
	l0.148-0.193l0.288-0.375c0.763-1.003,1.517-1.993,2.262-2.97l0.068-0.093c0.135-0.195-0.203,0.311,0.321-0.463l0.154-0.225
	l0.308-0.452c0.205-0.302,0.407-0.601,0.611-0.9c0.404-0.599,0.806-1.194,1.205-1.784c0.819-1.17,1.52-2.39,2.244-3.571
	c0.358-0.595,0.714-1.184,1.067-1.77l0.263-0.438c0.088-0.147,0.175-0.318,0.263-0.478c0.173-0.322,0.347-0.644,0.519-0.965
	c0.689-1.283,1.361-2.551,2.013-3.804c0.476-0.979,0.943-1.941,1.404-2.888c0.114-0.236,0.228-0.471,0.341-0.705l0.172-0.35
	l0.042-0.088c-0.144,0.346,0.242-0.567,0.219-0.515l0.091-0.214c0.24-0.569,0.479-1.135,0.713-1.694
	c0.466-1.123,0.939-2.22,1.364-3.309c0.399-1.101,0.791-2.178,1.175-3.232c0.188-0.528,0.376-1.051,0.562-1.568
	c0.176-0.567,0.35-1.13,0.521-1.687c0.335-1.117,0.664-2.208,0.983-3.272l0.116-0.399c0.039-0.132,0.081-0.272,0.103-0.363
	c0.055-0.201,0.106-0.403,0.16-0.604c0.105-0.4,0.209-0.797,0.313-1.186c0.205-0.78,0.405-1.54,0.599-2.278
	c0.127-0.594,0.251-1.179,0.374-1.754c0.091-0.439,0.179-0.871,0.268-1.297c0.173-0.852,0.341-1.676,0.503-2.474
	c0.155-0.799,0.259-1.577,0.382-2.326c0.117-0.75,0.229-1.472,0.336-2.164c0.053-0.347,0.104-0.686,0.155-1.019
	c0.05-0.338,0.082-0.711,0.121-1.054c0.148-1.39,0.275-2.657,0.386-3.792c0.001-0.025,0.003-0.048,0.006-0.073L255,124.942z"/>
</svg>
